<svg width="100%" height="100%" viewBox="0 0 42 27" version="1.1" xmlns="http://www.w3.org/2000/svg" style="fill-rule:evenodd;clip-rule:evenodd;stroke-linejoin:round;stroke-miterlimit:2;">
	<path d="M12.125,15.179c0,-0.265 -0.105,-0.519 -0.293,-0.707c-0.187,-0.188 -0.441,-0.293 -0.707,-0.293c-2.26,0 -7.74,0 -10,0c-0.265,0 -0.519,0.105 -0.707,0.293c-0.187,0.188 -0.293,0.442 -0.293,0.707c0,2.26 0,7.74 0,10c0,0.265 0.106,0.52 0.293,0.707c0.188,0.188 0.442,0.293 0.707,0.293c2.26,0 7.74,0 10,0c0.266,0 0.52,-0.105 0.707,-0.293c0.188,-0.187 0.293,-0.442 0.293,-0.707l0,-10Zm-10,1l0,8l8,0l0,-8l-8,0Z" style="fill:#fff;" />
	<path d="M5.875,12.358c2.346,0 3.868,-1.021 4.37,-2.776l0.125,0l0,2.597l1.755,0l0,-6.125l-6.358,-0l0,1.468l4.442,0l-0,0.162c-0,2.023 -1.128,2.812 -3.994,2.812c-2.812,-0 -4.173,-1.326 -4.173,-4.317c-0,-2.991 1.379,-4.334 4.262,-4.334c2.49,-0 3.69,0.931 3.69,2.651l0,0.143l2.131,-0l0,-0.143c0,-2.777 -2.364,-4.496 -5.767,-4.496c-3.833,0 -6.358,2.436 -6.358,6.179c-0,3.743 2.346,6.179 5.875,6.179Z" style="fill:#fff;fill-rule:nonzero;" />
	<path d="M19.588,12.179c3.725,0 6.072,-2.292 6.072,-6c-0,-3.707 -2.347,-6 -6.072,-6l-5.463,0l0,12l5.463,0Zm0,-10.263c2.776,0 4.03,1.183 4.03,4.263c-0,3.081 -1.254,4.263 -4.03,4.263l-3.546,-0l-0,-8.526l3.546,0Z" style="fill:#fff;fill-rule:nonzero;" />
	<path d="M19.876,26.358c3.797,0 6.269,-2.436 6.269,-6.179c-0,-3.743 -2.472,-6.179 -6.269,-6.179c-3.761,0 -6.251,2.436 -6.251,6.179c0,3.743 2.49,6.179 6.251,6.179Zm0,-1.862c-2.848,-0 -4.209,-1.326 -4.209,-4.317c0,-2.991 1.361,-4.334 4.209,-4.334c2.848,-0 4.227,1.343 4.227,4.334c-0,2.991 -1.379,4.317 -4.227,4.317Z" style="fill:#fff;fill-rule:nonzero;" />
	<path d="M36.957,26.179l-0,-1.737l-7.397,-0l-0,-10.263l-1.935,0l0,12l9.332,0Z" style="fill:#fff;fill-rule:nonzero;" />
	<path d="M28.246,0.179c-0.346,0 -0.667,0.179 -0.85,0.473c-0.182,0.294 -0.2,0.661 -0.046,0.971c2.154,4.349 8.634,17.427 11.879,23.979c0.207,0.416 0.672,0.635 1.124,0.529c0.453,-0.105 0.772,-0.509 0.772,-0.973c0,-6.933 0,-20.239 0,-23.979c0,-0.265 -0.105,-0.519 -0.293,-0.707c-0.187,-0.188 -0.441,-0.293 -0.707,-0.293c-2.468,0 -8.868,0 -11.879,0Zm1.611,2l9.268,18.708l0,-18.708l-9.268,0Z" style="fill:#fff;" />
</svg>
