<svg
	width="100%"
	height="100%"
	viewBox="0 0 96 288"
	version="1.1"
	xmlns="http://www.w3.org/2000/svg"
	xmlns:xlink="http://www.w3.org/1999/xlink"
	xml:space="preserve"
	xmlns:serif="http://www.serif.com/"
	style="
		fill-rule: evenodd;
		clip-rule: evenodd;
		stroke-linecap: round;
		stroke-linejoin: round;
		stroke-miterlimit: 1.5;
	"
>
	<circle
		vector-effect="non-scaling-stroke"
		cx="96"
		cy="96"
		r="95.5"
		style="fill: none; stroke: #fff; stroke-width: 1px; stroke-opacity: 0.2"
	/>
	<circle
		vector-effect="non-scaling-stroke"
		cx="96"
		cy="96"
		r="72"
		style="fill: none; stroke: #fff; stroke-width: 1px; stroke-opacity: 0.2"
	/>
	<path
		vector-effect="non-scaling-stroke"
		d="M96,8c-2.56,-0 -5.119,0.112 -7.67,0.335c0,-0 0.698,7.969 0.698,7.969c-2.319,0.203 -4.628,0.507 -6.92,0.911c0,0 -1.389,-7.878 -1.389,-7.878c-2.521,0.444 -5.022,0.999 -7.495,1.662c-0,-0 2.07,7.727 2.07,7.727c-2.248,0.602 -4.469,1.303 -6.656,2.099c0,-0 -2.736,-7.518 -2.736,-7.518c-2.406,0.876 -4.772,1.856 -7.092,2.938c-0,-0 3.381,7.25 3.381,7.25c-2.11,0.984 -4.175,2.059 -6.191,3.223c-0,-0 -4,-6.928 -4,-6.928c-2.217,1.28 -4.378,2.656 -6.475,4.125c0,-0 4.589,6.553 4.589,6.553c-1.907,1.335 -3.754,2.752 -5.537,4.248c-0,0 -5.142,-6.128 -5.142,-6.128c-1.962,1.646 -3.85,3.376 -5.66,5.187c-0,-0 5.656,5.656 5.656,5.656c-1.645,1.646 -3.218,3.363 -4.715,5.146c0,-0 -6.128,-5.142 -6.128,-5.142c-1.646,1.961 -3.205,3.993 -4.673,6.09c-0,0 6.553,4.589 6.553,4.589c-1.335,1.906 -2.586,3.87 -3.75,5.886c-0,-0 -6.928,-4 -6.928,-4c-1.28,2.217 -2.463,4.489 -3.545,6.81c-0,-0 7.25,3.381 7.25,3.381c-0.983,2.109 -1.874,4.26 -2.67,6.447c-0,0 -7.518,-2.736 -7.518,-2.736c-0.876,2.406 -1.646,4.849 -2.308,7.322c-0,-0 7.727,2.07 7.727,2.07c-0.602,2.249 -1.106,4.522 -1.511,6.814c0,0 -7.878,-1.389 -7.878,-1.389c-0.445,2.521 -0.779,5.061 -1.002,7.611c-0,0 7.969,0.698 7.969,0.698l0,-0c-0.202,2.318 -0.304,4.645 -0.304,6.972c0,0 -8,0 -8,0c-0,2.56 0.112,5.119 0.335,7.67c-0,-0 7.969,-0.698 7.969,-0.698c0.203,2.319 0.507,4.628 0.911,6.92c0,-0 -7.878,1.389 -7.878,1.389c0.444,2.521 0.999,5.022 1.662,7.495c-0,0 7.727,-2.07 7.727,-2.07c0.602,2.248 1.303,4.469 2.099,6.656c-0,-0 -7.518,2.736 -7.518,2.736c0.876,2.406 1.856,4.772 2.938,7.092c-0,0 7.25,-3.381 7.25,-3.381c0.984,2.11 2.059,4.175 3.223,6.191c-0,0 -6.928,4 -6.928,4c1.28,2.217 2.656,4.378 4.125,6.475c-0,-0 6.553,-4.589 6.553,-4.589c1.335,1.907 2.752,3.754 4.248,5.537c0,0 -6.128,5.142 -6.128,5.142c1.646,1.962 3.376,3.85 5.187,5.66c-0,0 5.656,-5.656 5.656,-5.656c1.646,1.645 3.363,3.218 5.146,4.715c-0,-0 -5.142,6.128 -5.142,6.128c1.961,1.646 3.993,3.205 6.09,4.673c0,0 4.589,-6.553 4.589,-6.553c1.906,1.335 3.87,2.586 5.886,3.75c-0,0 -4,6.928 -4,6.928c2.217,1.28 4.489,2.463 6.81,3.545c-0,0 3.381,-7.25 3.381,-7.25c2.109,0.983 4.26,1.874 6.447,2.67c0,0 -2.736,7.518 -2.736,7.518c2.406,0.876 4.849,1.646 7.322,2.308c-0,0 2.07,-7.727 2.07,-7.727c2.249,0.602 4.522,1.106 6.814,1.511c0,-0 -1.389,7.878 -1.389,7.878c2.521,0.445 5.061,0.779 7.611,1.002c0,0 0.698,-7.969 0.698,-7.969l-0,-0c2.318,0.202 4.645,0.304 6.972,0.304"
		style="fill: none; stroke: #fff; stroke-width: 1px; stroke-opacity: 0.2"
	/>
	<path
		vector-effect="non-scaling-stroke"
		d="M96,48l10.777,33.167l34.874,0l-28.214,20.499l10.777,33.167l-28.214,-20.499l-28.214,20.499l10.777,-33.167l-28.214,-20.499l34.874,0l10.777,-33.167Z"
		style="fill: none; stroke: #fff; stroke-width: 1px; stroke-opacity: 0.2"
	/>
	<path
		vector-effect="non-scaling-stroke"
		d="M48,179.14l0,108.349l48,-48"
		style="fill: none; stroke: #fff; stroke-width: 1px; stroke-opacity: 0.2"
	/>
	<path
		vector-effect="non-scaling-stroke"
		d="M72,188.491l0,74.998"
		style="fill: none; stroke: #fff; stroke-width: 1px; stroke-opacity: 0.2"
	/>
	<path
		vector-effect="non-scaling-stroke"
		d="M60,184.579l0,90.91"
		style="fill: none; stroke: #fff; stroke-width: 1px; stroke-linecap: butt; stroke-opacity: 0.2"
	/>
</svg>
